<svg width="209" height="21" viewBox="0 0 209 21" fill="none" xmlns="http://www.w3.org/2000/svg">
<path d="M108.276 12.872C108.276 13.5227 108.18 14.1147 107.988 14.648C107.806 15.1813 107.545 15.6347 107.204 16.008C106.873 16.3813 106.478 16.6747 106.02 16.888C105.561 17.0907 105.054 17.192 104.5 17.192C103.945 17.192 103.438 17.0907 102.98 16.888C102.521 16.6747 102.121 16.3813 101.78 16.008C101.449 15.6347 101.188 15.1813 100.996 14.648C100.814 14.1147 100.724 13.5227 100.724 12.872C100.724 12.2213 100.814 11.6293 100.996 11.096C101.188 10.5627 101.449 10.1093 101.78 9.736C102.121 9.352 102.521 9.05867 102.98 8.856C103.438 8.64267 103.945 8.536 104.5 8.536C105.054 8.536 105.561 8.64267 106.02 8.856C106.478 9.05867 106.873 9.352 107.204 9.736C107.545 10.1093 107.806 10.5627 107.988 11.096C108.18 11.6293 108.276 12.2213 108.276 12.872ZM107.172 12.872C107.172 11.8373 106.932 11.016 106.452 10.408C105.972 9.78933 105.321 9.48 104.5 9.48C103.678 9.48 103.028 9.78933 102.548 10.408C102.068 11.016 101.828 11.8373 101.828 12.872C101.828 13.9067 102.068 14.728 102.548 15.336C103.028 15.944 103.678 16.248 104.5 16.248C105.321 16.248 105.972 15.944 106.452 15.336C106.932 14.728 107.172 13.9067 107.172 12.872ZM106.708 5.448L103.972 7.672L103.444 7.064L105.972 4.632L106.708 5.448Z" fill="#061528"/>
<path d="M108.276 12.872C108.276 13.5227 108.18 14.1147 107.988 14.648C107.806 15.1813 107.545 15.6347 107.204 16.008C106.873 16.3813 106.478 16.6747 106.02 16.888C105.561 17.0907 105.054 17.192 104.5 17.192C103.945 17.192 103.438 17.0907 102.98 16.888C102.521 16.6747 102.121 16.3813 101.78 16.008C101.449 15.6347 101.188 15.1813 100.996 14.648C100.814 14.1147 100.724 13.5227 100.724 12.872C100.724 12.2213 100.814 11.6293 100.996 11.096C101.188 10.5627 101.449 10.1093 101.78 9.736C102.121 9.352 102.521 9.05867 102.98 8.856C103.438 8.64267 103.945 8.536 104.5 8.536C105.054 8.536 105.561 8.64267 106.02 8.856C106.478 9.05867 106.873 9.352 107.204 9.736C107.545 10.1093 107.806 10.5627 107.988 11.096C108.18 11.6293 108.276 12.2213 108.276 12.872ZM107.172 12.872C107.172 11.8373 106.932 11.016 106.452 10.408C105.972 9.78933 105.321 9.48 104.5 9.48C103.678 9.48 103.028 9.78933 102.548 10.408C102.068 11.016 101.828 11.8373 101.828 12.872C101.828 13.9067 102.068 14.728 102.548 15.336C103.028 15.944 103.678 16.248 104.5 16.248C105.321 16.248 105.972 15.944 106.452 15.336C106.932 14.728 107.172 13.9067 107.172 12.872ZM106.708 5.448L103.972 7.672L103.444 7.064L105.972 4.632L106.708 5.448Z" fill="white" fill-opacity="0.2"/>
<line x1="115" y1="11.75" x2="209" y2="11.75" stroke="black" stroke-width="0.5"/>
<line y1="11.75" x2="94" y2="11.75" stroke="black" stroke-width="0.5"/>
</svg>
