<svg width="55" height="56" viewBox="0 0 55 56" fill="none" xmlns="http://www.w3.org/2000/svg">
<path d="M48.5263 47.2895C48.5263 48.4655 47.5641 49.4276 46.3882 49.4276C45.2122 49.4276 44.25 48.4655 44.25 47.2895C44.25 46.1135 45.2122 45.1513 46.3882 45.1513C47.5641 45.1513 48.5263 46.1135 48.5263 47.2895ZM39.5461 45.1513C40.722 45.1513 41.6842 46.1135 41.6842 47.2895C41.6842 48.4655 40.722 49.4276 39.5461 49.4276C38.3701 49.4276 37.4079 48.4655 37.4079 47.2895C37.4079 46.1135 38.3701 45.1513 39.5461 45.1513ZM54.9408 40.0197V51.1382C54.9408 53.8109 52.8026 55.8421 50.2368 55.8421H4.90789C2.2352 55.8421 0.203947 53.8109 0.203947 51.1382V40.0197C0.203947 37.4539 2.2352 35.3158 4.90789 35.3158H18.1645V24.7319H12.4984C8.64967 24.7319 6.72533 20.1349 9.50493 17.4622L24.472 2.38816C26.1826 0.784539 28.8553 0.784539 30.5658 2.38816L45.6398 17.4622C48.3125 20.1349 46.3882 24.7319 42.5395 24.7319H36.9803V35.3158H50.2368C52.8026 35.3158 54.9408 37.4539 54.9408 40.0197ZM21.5855 21.3109V41.3026C21.5855 41.8372 21.9063 42.1579 22.4408 42.1579H32.7039C33.1316 42.1579 33.5592 41.8372 33.5592 41.3026V21.3109H42.5395C43.2878 21.3109 43.7155 20.4556 43.1809 19.8141L28.1069 4.84704C27.7862 4.52631 27.2516 4.52631 26.9309 4.84704L11.8569 19.8141C11.3224 20.3487 11.75 21.3109 12.4984 21.3109H21.5855ZM51.5197 40.0197C51.5197 39.3783 50.8783 38.7368 50.2368 38.7368H36.9803V41.3026C36.9803 43.7615 35.0559 45.5789 32.7039 45.5789H22.4408C19.9819 45.5789 18.1645 43.7615 18.1645 41.3026V38.7368H4.90789C4.15954 38.7368 3.625 39.3783 3.625 40.0197V51.1382C3.625 51.8865 4.15954 52.4211 4.90789 52.4211H50.2368C50.8783 52.4211 51.5197 51.8865 51.5197 51.1382V40.0197Z" fill="#FFE900"/>
</svg>
