<svg width="418" height="376" viewBox="0 0 418 376" fill="none" xmlns="http://www.w3.org/2000/svg">
<g clip-path="url(#clip0_33_5389)">
<path d="M214.049 0.817957L200.449 4.325L32.9002 47.5326L19.3006 51.0396C12.6996 52.7498 7.04646 57.0086 3.5815 62.8817C0.116553 68.7547 -0.877258 75.7624 0.818101 82.3673L59.7887 311.042C61.4989 317.643 65.7577 323.296 71.6308 326.761C77.5038 330.226 84.5115 331.22 91.1164 329.525L91.1515 329.515L285.829 279.312L285.864 279.303C292.466 277.593 298.119 273.334 301.584 267.461C305.049 261.588 306.042 254.58 304.347 247.975L245.376 19.3006C243.666 12.6995 239.407 7.04639 233.534 3.58142C227.661 0.116442 220.654 -0.877391 214.049 0.817957Z" fill="#F2F2F2"/>
<path d="M215.898 7.98737L199.79 12.1412L37.2568 54.0553L21.1493 58.2091C16.4486 59.4269 12.4228 62.4597 9.95534 66.6421C7.48785 70.8244 6.78012 75.8147 7.98743 80.5182L66.958 309.193C68.1759 313.894 71.2087 317.919 75.391 320.387C79.5734 322.854 84.5637 323.562 89.2672 322.355L89.3023 322.346L283.98 272.142L284.016 272.133C288.716 270.915 292.742 267.882 295.209 263.7C297.677 259.518 298.385 254.527 297.177 249.824L238.207 21.1493C236.989 16.4486 233.956 12.4229 229.774 9.95538C225.591 7.4879 220.601 6.78013 215.898 7.98737Z" fill="white"/>
<path d="M203.735 82.0382L105.252 107.435C104.152 107.719 102.984 107.554 102.006 106.977C101.028 106.399 100.319 105.457 100.035 104.357C99.7515 103.257 99.9164 102.09 100.494 101.111C101.071 100.133 102.013 99.4239 103.113 99.1402L201.596 73.7435C202.695 73.461 203.862 73.6266 204.84 74.2039C205.817 74.7812 206.525 75.723 206.809 76.8223C207.092 77.9216 206.928 79.0885 206.351 80.0665C205.775 81.0446 204.834 81.7538 203.735 82.0382Z" fill="#F2F2F2"/>
<path d="M224.453 91.6238L108.862 121.432C107.762 121.716 106.594 121.551 105.616 120.974C104.638 120.397 103.929 119.454 103.645 118.355C103.361 117.255 103.526 116.087 104.103 115.109C104.681 114.13 105.623 113.421 106.723 113.138L222.314 83.3291C223.414 83.0454 224.581 83.2103 225.559 83.7876C226.538 84.3648 227.247 85.307 227.53 86.4069C227.814 87.5069 227.649 88.6745 227.072 89.6528C226.495 90.6312 225.553 91.3402 224.453 91.6238Z" fill="#F2F2F2"/>
<path d="M219.912 144.767L121.429 170.164C120.884 170.304 120.317 170.336 119.76 170.258C119.203 170.179 118.667 169.991 118.183 169.706C117.698 169.42 117.275 169.041 116.937 168.592C116.599 168.142 116.352 167.631 116.212 167.086C116.071 166.542 116.04 165.975 116.118 165.418C116.197 164.861 116.385 164.325 116.67 163.84C116.956 163.356 117.335 162.932 117.784 162.594C118.233 162.256 118.745 162.01 119.29 161.869L217.772 136.473C218.317 136.332 218.884 136.3 219.441 136.379C219.998 136.458 220.534 136.645 221.018 136.931C221.503 137.217 221.926 137.595 222.264 138.045C222.603 138.494 222.849 139.006 222.989 139.55C223.13 140.095 223.162 140.662 223.083 141.219C223.004 141.776 222.817 142.312 222.531 142.796C222.245 143.281 221.867 143.704 221.417 144.042C220.968 144.38 220.456 144.627 219.912 144.767Z" fill="#F2F2F2"/>
<path d="M240.629 154.353L125.038 184.161C124.494 184.302 123.927 184.334 123.37 184.255C122.813 184.176 122.277 183.989 121.792 183.703C121.308 183.417 120.885 183.039 120.546 182.589C120.208 182.14 119.962 181.628 119.821 181.084C119.681 180.539 119.649 179.972 119.728 179.415C119.807 178.858 119.994 178.322 120.28 177.838C120.566 177.353 120.944 176.93 121.394 176.592C121.843 176.253 122.355 176.007 122.899 175.867L238.49 146.058C239.59 145.774 240.758 145.939 241.736 146.517C242.714 147.094 243.423 148.036 243.707 149.136C243.991 150.236 243.826 151.404 243.248 152.382C242.671 153.36 241.729 154.069 240.629 154.353Z" fill="#F2F2F2"/>
<path d="M236.088 207.496L137.605 232.893C136.506 233.176 135.339 233.01 134.361 232.433C133.383 231.856 132.675 230.914 132.391 229.814C132.108 228.715 132.272 227.548 132.849 226.57C133.426 225.592 134.367 224.883 135.466 224.598L233.949 199.202C235.049 198.918 236.217 199.083 237.195 199.66C238.173 200.237 238.882 201.179 239.166 202.279C239.45 203.379 239.285 204.547 238.708 205.525C238.13 206.504 237.188 207.213 236.088 207.496Z" fill="#F2F2F2"/>
<path d="M256.806 217.082L141.215 246.89C140.67 247.031 140.103 247.064 139.546 246.985C138.988 246.907 138.452 246.72 137.967 246.434C137.482 246.148 137.058 245.77 136.72 245.32C136.381 244.87 136.135 244.358 135.994 243.814C135.854 243.269 135.822 242.701 135.901 242.144C135.98 241.587 136.168 241.051 136.454 240.566C136.74 240.081 137.119 239.658 137.569 239.32C138.019 238.982 138.531 238.736 139.076 238.596L254.667 208.787C255.767 208.503 256.934 208.668 257.913 209.246C258.891 209.823 259.6 210.765 259.884 211.865C260.167 212.965 260.002 214.133 259.425 215.111C258.848 216.089 257.906 216.798 256.806 217.082Z" fill="#F2F2F2"/>
<path d="M88.4397 133.476L53.5876 142.463C53.0602 142.599 52.5006 142.519 52.0317 142.243C51.5627 141.966 51.2226 141.515 51.0861 140.987L43.0858 109.964C42.9504 109.437 43.0298 108.877 43.3065 108.408C43.5831 107.939 44.0345 107.599 44.5616 107.463L79.4138 98.475C79.9412 98.3396 80.5007 98.419 80.9697 98.6957C81.4387 98.9723 81.7787 99.4238 81.9153 99.9509L89.9156 130.974C90.0509 131.502 89.9716 132.061 89.6949 132.53C89.4182 132.999 88.9668 133.339 88.4397 133.476Z" fill="#E6E6E6"/>
<path d="M104.616 196.205L69.7641 205.192C69.2367 205.328 68.6771 205.248 68.2082 204.972C67.7392 204.695 67.3991 204.244 67.2626 203.717L59.2623 172.693C59.1269 172.166 59.2063 171.606 59.483 171.137C59.7597 170.668 60.2111 170.328 60.7381 170.192L95.5903 161.204C96.1177 161.069 96.6772 161.148 97.1462 161.425C97.6152 161.701 97.9552 162.153 98.0918 162.68L106.092 193.703C106.227 194.231 106.148 194.79 105.871 195.259C105.595 195.728 105.143 196.068 104.616 196.205Z" fill="#E6E6E6"/>
<path d="M120.793 258.934L85.9406 267.921C85.4132 268.057 84.8537 267.977 84.3847 267.701C83.9157 267.424 83.5757 266.973 83.4391 266.446L75.4388 235.422C75.3035 234.895 75.3828 234.335 75.6595 233.866C75.9362 233.397 76.3876 233.057 76.9147 232.921L111.767 223.933C112.294 223.798 112.854 223.877 113.323 224.154C113.792 224.43 114.132 224.882 114.268 225.409L122.269 256.432C122.404 256.96 122.325 257.519 122.048 257.988C121.771 258.457 121.32 258.797 120.793 258.934Z" fill="#E6E6E6"/>
<path d="M349.876 58.7839H148.756C141.937 58.7916 135.4 61.5039 130.578 66.3256C125.756 71.1474 123.044 77.6849 123.036 84.5039V320.66C123.044 327.479 125.756 334.016 130.578 338.838C135.4 343.66 141.937 346.372 148.756 346.38H349.876C356.695 346.372 363.232 343.66 368.054 338.838C372.876 334.016 375.588 327.479 375.595 320.66V84.5039C375.588 77.6849 372.876 71.1474 368.054 66.3256C363.232 61.5039 356.695 58.7916 349.876 58.7839Z" fill="#E6E6E6"/>
<path d="M349.876 66.1882H148.756C143.9 66.1936 139.245 68.125 135.811 71.5587C132.377 74.9924 130.446 79.6479 130.44 84.5039V320.66C130.446 325.516 132.377 330.171 135.811 333.605C139.245 337.039 143.9 338.97 148.756 338.976H349.876C354.732 338.97 359.387 337.039 362.821 333.605C366.255 330.171 368.186 325.516 368.191 320.66V84.5039C368.186 79.648 366.255 74.9925 362.821 71.5588C359.387 68.1251 354.732 66.1937 349.876 66.1882Z" fill="white"/>
<path d="M371.005 375.113C396.935 375.113 417.956 354.092 417.956 328.162C417.956 302.232 396.935 281.211 371.005 281.211C345.075 281.211 324.054 302.232 324.054 328.162C324.054 354.092 345.075 375.113 371.005 375.113Z" fill="#FFE900"/>
<path d="M393.459 322.038H377.129V305.707C377.129 304.083 376.484 302.525 375.335 301.377C374.187 300.228 372.629 299.583 371.005 299.583C369.381 299.583 367.823 300.228 366.674 301.377C365.526 302.525 364.881 304.083 364.881 305.707V322.038H348.55C346.926 322.038 345.368 322.683 344.22 323.831C343.071 324.98 342.426 326.538 342.426 328.162C342.426 329.786 343.071 331.344 344.22 332.492C345.368 333.641 346.926 334.286 348.55 334.286H364.881V350.616C364.881 352.241 365.526 353.798 366.674 354.947C367.823 356.095 369.381 356.74 371.005 356.74C372.629 356.74 374.187 356.095 375.335 354.947C376.484 353.798 377.129 352.241 377.129 350.616V334.286H393.459C395.084 334.286 396.641 333.641 397.79 332.492C398.938 331.344 399.583 329.786 399.583 328.162C399.583 326.538 398.938 324.98 397.79 323.831C396.641 322.683 395.084 322.038 393.459 322.038Z" fill="white"/>
<path d="M319.607 195.955H217.902C217.339 195.956 216.782 195.846 216.262 195.631C215.742 195.416 215.269 195.1 214.871 194.702C214.472 194.305 214.157 193.832 213.941 193.312C213.725 192.792 213.615 192.235 213.615 191.672C213.615 191.109 213.725 190.552 213.941 190.032C214.157 189.512 214.472 189.04 214.871 188.642C215.269 188.244 215.742 187.929 216.262 187.714C216.782 187.499 217.339 187.389 217.902 187.389H319.607C320.742 187.39 321.83 187.842 322.633 188.645C323.435 189.448 323.885 190.537 323.885 191.672C323.885 192.807 323.435 193.896 322.633 194.699C321.83 195.502 320.742 195.954 319.607 195.955Z" fill="#E6E6E6"/>
<path d="M337.275 210.411H217.902C217.339 210.411 216.782 210.301 216.262 210.086C215.742 209.871 215.269 209.556 214.871 209.158C214.472 208.76 214.157 208.288 213.941 207.768C213.725 207.248 213.615 206.69 213.615 206.128C213.615 205.565 213.725 205.007 213.941 204.487C214.157 203.967 214.472 203.495 214.871 203.097C215.269 202.699 215.742 202.384 216.262 202.169C216.782 201.954 217.339 201.844 217.902 201.844H337.275C338.411 201.844 339.5 202.296 340.303 203.099C341.107 203.902 341.558 204.992 341.558 206.128C341.558 207.263 341.107 208.353 340.303 209.156C339.5 209.959 338.411 210.411 337.275 210.411Z" fill="#E6E6E6"/>
<path d="M319.607 260.737H217.902C217.339 260.737 216.782 260.627 216.262 260.412C215.742 260.197 215.269 259.882 214.871 259.484C214.472 259.086 214.157 258.614 213.941 258.094C213.725 257.574 213.615 257.016 213.615 256.453C213.615 255.891 213.725 255.333 213.941 254.813C214.157 254.293 214.472 253.821 214.871 253.423C215.269 253.025 215.742 252.71 216.262 252.495C216.782 252.28 217.339 252.17 217.902 252.17H319.607C320.743 252.17 321.832 252.622 322.636 253.425C323.439 254.228 323.89 255.318 323.89 256.453C323.89 257.589 323.439 258.679 322.636 259.482C321.832 260.285 320.743 260.737 319.607 260.737Z" fill="#E6E6E6"/>
<path d="M337.275 275.192H217.902C217.339 275.193 216.782 275.082 216.262 274.867C215.742 274.652 215.269 274.337 214.871 273.939C214.472 273.541 214.157 273.069 213.941 272.549C213.725 272.029 213.615 271.472 213.615 270.909C213.615 270.346 213.725 269.789 213.941 269.269C214.157 268.749 214.472 268.276 214.871 267.879C215.269 267.481 215.742 267.165 216.262 266.95C216.782 266.735 217.339 266.625 217.902 266.626H337.275C337.838 266.625 338.395 266.735 338.915 266.95C339.435 267.165 339.908 267.481 340.306 267.879C340.705 268.276 341.021 268.749 341.236 269.269C341.452 269.789 341.563 270.346 341.563 270.909C341.563 271.472 341.452 272.029 341.236 272.549C341.021 273.069 340.705 273.541 340.306 273.939C339.908 274.337 339.435 274.652 338.915 274.867C338.395 275.082 337.838 275.193 337.275 275.192Z" fill="#E6E6E6"/>
<path d="M195.12 216.973H159.127C158.583 216.972 158.061 216.756 157.676 216.37C157.291 215.985 157.074 215.463 157.074 214.919V182.881C157.074 182.336 157.291 181.814 157.676 181.429C158.061 181.044 158.583 180.828 159.127 180.827H195.12C195.664 180.828 196.186 181.044 196.571 181.429C196.956 181.814 197.173 182.336 197.174 182.881V214.919C197.173 215.463 196.956 215.985 196.571 216.37C196.186 216.756 195.664 216.972 195.12 216.973Z" fill="#E6E6E6"/>
<path d="M195.12 281.754H159.127C158.583 281.753 158.061 281.537 157.676 281.152C157.291 280.767 157.074 280.245 157.074 279.7V247.662C157.074 247.118 157.291 246.596 157.676 246.21C158.061 245.825 158.583 245.609 159.127 245.608H195.12C195.664 245.609 196.186 245.825 196.571 246.21C196.956 246.596 197.173 247.118 197.174 247.662V279.7C197.173 280.245 196.956 280.767 196.571 281.152C196.186 281.537 195.664 281.753 195.12 281.754Z" fill="#E6E6E6"/>
<path d="M319.72 123.841H244.737C243.601 123.841 242.512 123.39 241.709 122.586C240.905 121.783 240.454 120.694 240.454 119.558C240.454 118.422 240.905 117.332 241.709 116.529C242.512 115.726 243.601 115.275 244.737 115.275H319.72C320.856 115.275 321.945 115.726 322.749 116.529C323.552 117.332 324.003 118.422 324.003 119.558C324.003 120.694 323.552 121.783 322.749 122.586C321.945 123.39 320.856 123.841 319.72 123.841Z" fill="#CCCCCC"/>
<path d="M337.388 138.296H244.737C244.175 138.296 243.618 138.185 243.098 137.97C242.578 137.755 242.106 137.439 241.709 137.042C241.311 136.644 240.995 136.172 240.78 135.652C240.565 135.133 240.454 134.576 240.454 134.013C240.454 133.451 240.565 132.894 240.78 132.374C240.995 131.854 241.311 131.382 241.709 130.985C242.106 130.587 242.578 130.271 243.098 130.056C243.618 129.841 244.175 129.73 244.737 129.73H337.388C338.524 129.73 339.613 130.181 340.416 130.985C341.219 131.788 341.671 132.877 341.671 134.013C341.671 135.149 341.219 136.239 340.416 137.042C339.613 137.845 338.524 138.296 337.388 138.296Z" fill="#CCCCCC"/>
<path d="M228.142 155.814H159.015C158.47 155.814 157.948 155.597 157.563 155.212C157.178 154.827 156.962 154.305 156.961 153.761V99.8104C156.962 99.2659 157.178 98.7439 157.563 98.3588C157.948 97.9738 158.47 97.7573 159.015 97.7567H228.142C228.687 97.7573 229.209 97.9738 229.594 98.3588C229.979 98.7439 230.195 99.2659 230.196 99.8104V153.761C230.195 154.305 229.979 154.827 229.594 155.212C229.209 155.597 228.687 155.814 228.142 155.814Z" fill="#FFE900"/>
</g>
<defs>
<clipPath id="clip0_33_5389">
<rect width="417.956" height="375.113" fill="white"/>
</clipPath>
</defs>
</svg>
