<svg width="519" height="665" viewBox="0 0 519 665" fill="none" xmlns="http://www.w3.org/2000/svg">
<g clip-path="url(#clip0_33_1431)">
<path d="M409.619 240.057L406.485 239.143C413.014 216.74 398.936 174.934 398.794 174.514L401.883 173.46C402.481 175.214 416.435 216.673 409.619 240.057Z" fill="#3F3C57"/>
<path d="M408.052 265.789C415.584 265.789 421.689 259.679 421.689 252.143C421.689 244.607 415.584 238.497 408.052 238.497C400.521 238.497 394.416 244.607 394.416 252.143C394.416 259.679 400.521 265.789 408.052 265.789Z" fill="#3F3C57"/>
<path d="M318.453 300.453H310.183C309.281 300.453 308.551 299.721 308.551 298.819C308.551 297.917 309.281 297.186 310.183 297.186H318.453C320.732 297.186 322.873 296.297 324.483 294.683C326.092 293.07 326.976 290.925 326.972 288.646L326.871 237.673C326.871 226.599 317.871 217.593 306.808 217.593C295.746 217.593 286.744 226.599 286.744 237.67L286.845 285.38C286.854 290.035 290.647 293.851 295.298 293.886L300.974 293.929C301.875 293.937 302.6 294.673 302.594 295.576C302.587 296.473 301.857 297.196 300.962 297.196H300.949L295.272 297.153C288.839 297.104 283.593 291.825 283.58 285.387L283.48 237.673C283.48 224.799 293.945 214.327 306.808 214.327C319.671 214.327 330.136 224.799 330.136 237.67L330.236 288.639C330.242 291.793 329.02 294.759 326.793 296.99C324.568 299.223 321.604 300.453 318.453 300.453Z" fill="#3F3C57"/>
<path d="M300.962 301.352C304.157 301.352 306.747 298.76 306.747 295.563C306.747 292.366 304.157 289.774 300.962 289.774C297.767 289.774 295.177 292.366 295.177 295.563C295.177 298.76 297.767 301.352 300.962 301.352Z" fill="#3F3C57"/>
<path d="M310.183 304.609C313.378 304.609 315.968 302.017 315.968 298.819C315.968 295.622 313.378 293.03 310.183 293.03C306.987 293.03 304.397 295.622 304.397 298.819C304.397 302.017 306.987 304.609 310.183 304.609Z" fill="#3F3C57"/>
<path d="M207.35 147.405L218.973 200.481L194.25 274.357L154.418 194.983L159.945 148.935L207.35 147.405Z" fill="#FDB4B4"/>
<path d="M221.133 197.732H152.358V280.885H221.133V197.732Z" fill="#FFE900"/>
<path d="M186.881 174.14C160.942 174.14 139.913 153.098 139.913 127.14C139.913 101.183 160.942 80.1405 186.881 80.1405C212.821 80.1405 233.849 101.183 233.849 127.14C233.849 153.098 212.821 174.14 186.881 174.14Z" fill="#FDB4B4"/>
<path d="M227.765 162.09C227.765 162.09 262.775 97.3879 231.209 66.2518C199.644 35.1158 174.304 55.6325 174.304 55.6325L159.835 55.0473C159.835 55.0473 156.817 66.4425 151.95 60.2738C147.084 54.1051 138.291 76.5707 138.291 76.5707C121.97 105.983 178.548 112.572 178.548 112.572C178.548 112.572 174.463 125.595 178.615 128.323C182.768 131.05 193.863 141.31 193.863 141.31L203.794 148.815L209.695 139.817C209.695 139.817 215.86 134.948 218.974 136.993C222.089 139.039 217.805 165.952 217.805 165.952L227.765 162.09Z" fill="#2E2E41"/>
<path d="M95.623 638.089L77.6659 906.13L121.81 907.628L180.171 640.335L95.623 638.089Z" fill="#2E2E41"/>
<path d="M202.617 636.591L184.66 904.633L228.805 906.13L287.165 638.838L202.617 636.591Z" fill="#2E2E41"/>
<path d="M59.2214 544.285C58.6793 536.756 59.9474 529.207 62.9194 522.27L53.3796 443.959L90.7496 440.506L96.4019 520.315C100.157 526.858 102.292 534.207 102.628 541.745C103.727 560.601 94.901 576.448 82.9132 577.148C70.9253 577.848 60.3175 563.135 59.2214 544.285Z" fill="#FDB4B4"/>
<path d="M295.913 555.78C295.453 548.246 296.803 540.711 299.85 533.806L291.164 455.396L328.57 452.351L333.352 532.217C337.036 538.801 339.091 546.172 339.345 553.713C340.238 572.581 331.24 588.33 319.245 588.899C307.25 589.469 296.803 574.64 295.913 555.78Z" fill="#FDB4B4"/>
<g filter="url(#filter0_d_33_1431)">
<path fill-rule="evenodd" clip-rule="evenodd" d="M100.059 509.888L84.8097 699.329L291.779 696.74L292.593 696.729L274.23 400.037L282.456 216.401L282.48 215.871L231.193 193.229L213.9 180.644L191.728 259.038L156.226 180.584L140.617 196.204L105.353 205.566C99.7813 207.045 94.7074 209.526 90.288 212.773C89.3885 212.616 88.4761 212.5 87.5527 212.426C72.2554 211.202 58.6899 222.153 56.6365 237.355L33.6237 407.635L53.0996 512.204L53.226 512.88L100.059 509.888ZM103.787 463.58L108.31 407.393L97.8414 363.235L96.5413 372.821L103.787 463.58Z" fill="white"/>
</g>
<path d="M284.371 510.426L245.214 248.872C243.179 241.202 244.37 233.176 248.586 226.356C252.802 219.536 259.445 214.885 267.294 213.261C282.31 210.153 297.137 219.338 301.056 234.168L338.674 507.141L284.371 510.426Z" fill="#E8E9EA"/>
<path d="M192.876 282.947C195.531 282.947 197.684 280.793 197.684 278.136C197.684 275.48 195.531 273.326 192.876 273.326C190.221 273.326 188.069 275.48 188.069 278.136C188.069 280.793 190.221 282.947 192.876 282.947Z" fill="#D6D7D8"/>
<path d="M192.876 319.369C195.531 319.369 197.684 317.216 197.684 314.559C197.684 311.902 195.531 309.748 192.876 309.748C190.221 309.748 188.069 311.902 188.069 314.559C188.069 317.216 190.221 319.369 192.876 319.369Z" fill="#D6D7D8"/>
<path d="M192.876 355.792C195.531 355.792 197.684 353.638 197.684 350.981C197.684 348.325 195.531 346.171 192.876 346.171C190.221 346.171 188.069 348.325 188.069 350.981C188.069 353.638 190.221 355.792 192.876 355.792Z" fill="#D6D7D8"/>
<path d="M192.876 392.215C195.531 392.215 197.684 390.061 197.684 387.404C197.684 384.747 195.531 382.593 192.876 382.593C190.221 382.593 188.069 384.747 188.069 387.404C188.069 390.061 190.221 392.215 192.876 392.215Z" fill="#D6D7D8"/>
<path d="M192.876 428.637C195.531 428.637 197.684 426.483 197.684 423.827C197.684 421.17 195.531 419.016 192.876 419.016C190.221 419.016 188.069 421.17 188.069 423.827C188.069 426.483 190.221 428.637 192.876 428.637Z" fill="#D6D7D8"/>
<path d="M192.876 465.06C195.531 465.06 197.684 462.906 197.684 460.249C197.684 457.592 195.531 455.439 192.876 455.439C190.221 455.439 188.069 457.592 188.069 460.249C188.069 462.906 190.221 465.06 192.876 465.06Z" fill="#D6D7D8"/>
<path d="M192.876 501.482C195.531 501.482 197.684 499.328 197.684 496.672C197.684 494.015 195.531 491.861 192.876 491.861C190.221 491.861 188.069 494.015 188.069 496.672C188.069 499.328 190.221 501.482 192.876 501.482Z" fill="#D6D7D8"/>
<path d="M192.876 537.905C195.531 537.905 197.684 535.751 197.684 533.094C197.684 530.437 195.531 528.284 192.876 528.284C190.221 528.284 188.069 530.437 188.069 533.094C188.069 535.751 190.221 537.905 192.876 537.905Z" fill="#D6D7D8"/>
<path d="M192.882 566.08L101.923 553.95L100.172 553.717L53.6846 446.456L26 382.596H98.11L192.882 566.08Z" fill="#FFE900"/>
<path d="M236.949 253.715L233.973 252.847C240.173 231.573 226.954 191.257 226.819 190.859L230.539 193.665C231.107 195.33 243.422 231.509 236.949 253.715Z" fill="#3F3C57"/>
<path d="M132.334 257.495L135.31 256.627C129.109 235.353 142.479 195.652 142.614 195.253L139.43 197.387C138.862 199.053 125.861 235.289 132.334 257.495Z" fill="#3F3C57"/>
<path d="M235.461 278.151C242.613 278.151 248.411 272.35 248.411 265.193C248.411 258.036 242.613 252.235 235.461 252.235C228.309 252.235 222.511 258.036 222.511 265.193C222.511 272.35 228.309 278.151 235.461 278.151Z" fill="#3F3C57"/>
<path d="M146.139 337.184H138.286C137.429 337.184 136.736 336.489 136.736 335.633C136.736 334.776 137.429 334.081 138.286 334.081H146.139C148.304 334.081 150.337 333.238 151.866 331.705C153.393 330.173 154.233 328.136 154.229 325.971L154.133 277.566C154.133 267.05 145.587 258.498 135.081 258.498C124.576 258.498 116.028 267.05 116.028 277.563L116.123 322.871C116.132 327.291 119.733 330.914 124.15 330.948L129.541 330.989C130.396 330.996 131.085 331.695 131.079 332.552C131.073 333.404 130.38 334.091 129.529 334.091H129.517L124.126 334.05C118.017 334.003 113.035 328.99 113.023 322.877L112.927 277.566C112.927 265.34 122.865 255.395 135.081 255.395C147.296 255.395 157.234 265.34 157.234 277.563L157.329 325.965C157.335 328.96 156.174 331.777 154.059 333.896C151.946 336.016 149.132 337.184 146.139 337.184Z" fill="#3F3C57"/>
<path d="M129.529 338.038C132.564 338.038 135.023 335.577 135.023 332.54C135.023 329.504 132.564 327.042 129.529 327.042C126.495 327.042 124.035 329.504 124.035 332.54C124.035 335.577 126.495 338.038 129.529 338.038Z" fill="#3F3C57"/>
<path d="M138.286 341.13C141.32 341.13 143.78 338.669 143.78 335.633C143.78 332.596 141.32 330.135 138.286 330.135C135.251 330.135 132.792 332.596 132.792 335.633C132.792 338.669 135.251 341.13 138.286 341.13Z" fill="#3F3C57"/>
<path d="M311.666 72.9213L375.61 37.8675V138.021H301.658L311.666 72.9213Z" fill="#2E2E41"/>
<path d="M389.32 95.2506L395.221 144.42L352.69 229.174L326.291 150.291L338.702 93.6172L389.32 95.2506Z" fill="#FDB4B4"/>
<path d="M397.421 147.355H323.985V236.146H397.421V147.355Z" fill="#FFE900"/>
<path d="M458.003 617.563L477.177 903.775L430.04 905.374L367.723 619.962L458.003 617.563Z" fill="#2E2E41"/>
<path d="M343.755 615.964L362.93 902.176L315.793 903.775L253.476 618.363L343.755 615.964Z" fill="#2E2E41"/>
<path d="M507.803 678.267L506.68 678.264L206.395 677.283L206.664 676.219L283.867 370.133L264.528 215.663C260.864 186.393 276.522 158.726 303.492 146.82L313.229 142.522L331.726 129.061L355.388 212.732L393.282 128.996L409.974 145.697L447.62 155.693C471.085 161.922 486.286 184.767 482.981 208.832L482.941 209L425.45 373.155L507.803 678.267Z" fill="#E8E9EA"/>
<path d="M476.339 514.466C475.169 534.593 463.842 550.304 451.041 549.556C438.241 548.809 428.816 531.888 429.99 511.753C430.348 503.704 432.628 495.858 436.638 488.871L442.674 403.652L482.577 407.339L472.39 490.958C475.564 498.366 476.918 506.427 476.339 514.466Z" fill="#FDB4B4"/>
<path d="M271.281 506.812C269.683 526.91 258.024 542.376 245.243 541.356C232.461 540.336 223.398 523.218 225 503.113C225.53 495.073 227.976 487.277 232.134 480.377L239.98 395.306L279.796 399.842L267.833 483.225C270.849 490.699 272.031 498.787 271.281 506.812Z" fill="#FDB4B4"/>
<path d="M482.765 480.962L424.813 477.261L424.883 476.391L436.459 331.378L417.967 195.018C416.814 186.524 419.138 178.169 424.511 171.494C429.884 164.818 437.545 160.765 446.085 160.081C462.435 158.791 476.932 170.478 479.128 186.726L503.701 368.553L503.676 368.689L482.765 480.962Z" fill="#E8E9EA"/>
<path d="M280.929 475.407L222.885 471.896L223.012 470.979L263.038 180.486C267.247 164.531 283.102 154.718 299.144 158.038C307.533 159.774 314.633 164.744 319.139 172.034C323.645 179.324 324.918 187.902 322.724 196.188L280.929 475.407Z" fill="#E8E9EA"/>
<path d="M354.156 238.347C356.991 238.347 359.289 236.047 359.289 233.21C359.289 230.373 356.991 228.074 354.156 228.074C351.321 228.074 349.023 230.373 349.023 233.21C349.023 236.047 351.321 238.347 354.156 238.347Z" fill="#D6D7D8"/>
<path d="M354.156 277.239C356.991 277.239 359.289 274.939 359.289 272.102C359.289 269.265 356.991 266.965 354.156 266.965C351.321 266.965 349.023 269.265 349.023 272.102C349.023 274.939 351.321 277.239 354.156 277.239Z" fill="#D6D7D8"/>
<path d="M354.156 316.13C356.991 316.13 359.289 313.83 359.289 310.993C359.289 308.157 356.991 305.857 354.156 305.857C351.321 305.857 349.023 308.157 349.023 310.993C349.023 313.83 351.321 316.13 354.156 316.13Z" fill="#D6D7D8"/>
<path d="M354.156 355.022C356.991 355.022 359.289 352.722 359.289 349.885C359.289 347.048 356.991 344.748 354.156 344.748C351.321 344.748 349.023 347.048 349.023 349.885C349.023 352.722 351.321 355.022 354.156 355.022Z" fill="#D6D7D8"/>
<path d="M354.156 393.913C356.991 393.913 359.289 391.614 359.289 388.777C359.289 385.94 356.991 383.64 354.156 383.64C351.321 383.64 349.023 385.94 349.023 388.777C349.023 391.614 351.321 393.913 354.156 393.913Z" fill="#D6D7D8"/>
<path d="M354.156 432.805C356.991 432.805 359.289 430.505 359.289 427.668C359.289 424.831 356.991 422.532 354.156 422.532C351.321 422.532 349.023 424.831 349.023 427.668C349.023 430.505 351.321 432.805 354.156 432.805Z" fill="#D6D7D8"/>
<path d="M354.156 471.696C356.991 471.696 359.289 469.397 359.289 466.56C359.289 463.723 356.991 461.423 354.156 461.423C351.321 461.423 349.023 463.723 349.023 466.56C349.023 469.397 351.321 471.696 354.156 471.696Z" fill="#D6D7D8"/>
<path d="M354.156 510.588C356.991 510.588 359.289 508.288 359.289 505.451C359.289 502.614 356.991 500.315 354.156 500.315C351.321 500.315 349.023 502.614 349.023 505.451C349.023 508.288 351.321 510.588 354.156 510.588Z" fill="#D6D7D8"/>
<path d="M361.949 120.345C388.465 120.345 409.962 98.8341 409.962 72.2993C409.962 45.7646 388.465 24.2539 361.949 24.2539C335.432 24.2539 313.936 45.7646 313.936 72.2993C313.936 98.8341 335.432 120.345 361.949 120.345Z" fill="#FDB4B4"/>
<path d="M387.11 16.2123C389.411 20.8946 385.762 26.7435 380.933 28.7121C376.104 30.6807 370.65 29.8831 365.5 29.0636C360.35 28.2442 354.888 27.4672 350.073 29.4706C343.844 32.0629 340.332 38.5655 337.306 44.5997C331.657 55.8647 326.008 67.1296 320.359 78.3946C317.599 83.8984 314.777 89.6497 314.724 95.8074C314.626 107.11 323.587 116.143 328.408 126.365C334.277 138.811 333.793 154.063 327.146 166.112C320.499 178.16 307.859 186.696 294.206 188.357C290.614 188.794 286.812 188.746 283.582 187.113C280.353 185.48 277.888 181.914 278.486 178.343C279.656 171.358 290.322 169.726 292.28 162.92C293.303 159.368 291.492 155.574 289.051 152.799C286.609 150.024 283.522 147.859 281.193 144.989C275.823 138.371 275.466 128.154 280.359 121.176C283.235 117.075 287.683 114.028 289.542 109.376C291.126 105.41 290.551 100.953 289.951 96.7253C289.18 91.2924 288.409 85.8596 287.638 80.4268C286.738 74.0883 285.852 67.5225 287.63 61.3725C291.704 47.2791 307.607 40.66 316.933 29.3396C321.266 24.0791 324.182 17.7525 328.628 12.5867C336.089 3.91768 347.835 -0.864565 359.224 0.129545C370.614 1.12367 381.355 7.86865 387.204 17.6993" fill="#2E2E41"/>
<path d="M379.531 17.101C377.185 17.9404 376.314 20.9977 376.99 23.3973C377.665 25.7968 379.433 27.7034 381.051 29.5986C399.355 51.0337 403.609 83.4564 391.456 108.893C388.223 115.659 383.917 122.027 382.173 129.32C380.905 134.628 380.973 140.449 378.031 145.043C375.035 149.721 369.1 152.855 368.513 158.379C368.136 161.924 370.295 165.368 373.19 167.447C376.085 169.525 379.621 170.476 383.098 171.251C392.137 173.267 401.379 174.367 410.637 174.53C413.656 174.583 416.771 174.518 419.54 173.314C422.309 172.111 424.672 169.501 424.704 166.48C424.728 164.106 423.36 161.915 423.186 159.547C422.662 152.452 432.203 148.678 434.062 141.81C435.284 137.296 432.877 132.65 430.312 128.74C427.747 124.83 424.82 120.724 424.883 116.047C424.943 111.569 427.751 107.626 428.842 103.284C430.352 97.2769 428.498 90.994 426.658 85.0801C425.094 80.0523 423.531 75.0244 421.967 69.9966C420.305 64.6518 418.643 59.307 416.98 53.9622C414.078 44.6313 411.032 35.03 404.752 27.5462C398.472 20.0623 388.066 15.1572 378.79 18.2127" fill="#2E2E41"/>
</g>
<defs>
<filter id="filter0_d_33_1431" x="29.6237" y="180.584" width="266.969" height="526.744" filterUnits="userSpaceOnUse" color-interpolation-filters="sRGB">
<feFlood flood-opacity="0" result="BackgroundImageFix"/>
<feColorMatrix in="SourceAlpha" type="matrix" values="0 0 0 0 0 0 0 0 0 0 0 0 0 0 0 0 0 0 127 0" result="hardAlpha"/>
<feOffset dy="4"/>
<feGaussianBlur stdDeviation="2"/>
<feComposite in2="hardAlpha" operator="out"/>
<feColorMatrix type="matrix" values="0 0 0 0 0 0 0 0 0 0 0 0 0 0 0 0 0 0 0.25 0"/>
<feBlend mode="normal" in2="BackgroundImageFix" result="effect1_dropShadow_33_1431"/>
<feBlend mode="normal" in="SourceGraphic" in2="effect1_dropShadow_33_1431" result="shape"/>
</filter>
<clipPath id="clip0_33_1431">
<rect width="519" height="665" fill="white"/>
</clipPath>
</defs>
</svg>
