<svg width="519" height="665" viewBox="0 0 519 665" fill="none" xmlns="http://www.w3.org/2000/svg">
<g clip-path="url(#clip0_106_2678)">
<path d="M123.179 355.895C122.07 354.884 121.197 353.642 120.62 352.257C120.044 350.872 119.778 349.378 119.842 347.879C119.906 346.38 120.298 344.914 120.99 343.583C121.683 342.252 122.658 341.089 123.849 340.175L112.355 305.569L130.663 310.485L138.772 342.594C140.174 344.695 140.756 347.237 140.409 349.739C140.061 352.241 138.808 354.528 136.886 356.167C134.964 357.807 132.507 358.685 129.98 358.634C127.454 358.584 125.034 357.61 123.179 355.895Z" fill="#A0616A"/>
<path d="M156.361 167.87C159.399 169.611 177.373 165.298 180.883 166.525C178.945 178.342 189.469 173.908 178.041 189.426C166.612 204.945 143.594 251.475 138.365 268.865C133.136 286.256 138.311 310.763 137.528 319.005C137.15 323.78 137.173 328.579 137.599 333.35C131.424 333.273 125.338 334.553 119.066 333.735C112.379 314.82 107.882 287.897 104.829 273.017C101.775 258.137 101.663 264.43 103.064 256.99C104.464 249.549 104.803 254.956 103.332 247.838C101.861 240.72 107.811 231.777 113.308 226.678C115.678 219.864 118.741 213.51 121.088 206.768C138.283 191.774 139.414 183.113 156.361 167.87Z" fill="#FFE900"/>
<path d="M384.032 301.581C384.037 305.863 383.32 310.115 381.91 314.159C381.846 314.347 381.779 314.532 381.711 314.72C378.827 322.553 373.462 329.23 366.433 333.733C365.953 334.041 365.468 334.336 364.974 334.622C359.358 337.877 353.001 339.638 346.511 339.734C346.298 339.737 346.084 339.74 345.871 339.74C345.596 339.74 345.324 339.737 345.052 339.731C338.553 339.602 332.196 337.807 326.589 334.518C326.095 334.229 325.609 333.929 325.13 333.618C317.326 328.559 311.636 320.827 309.127 311.872C306.618 302.918 307.462 293.355 311.501 284.978C311.591 284.79 311.684 284.605 311.779 284.417C314.96 278.104 319.832 272.799 325.852 269.091C331.871 265.384 338.802 263.421 345.871 263.421C352.941 263.421 359.871 265.384 365.891 269.091C371.91 272.799 376.782 278.104 379.963 284.417C380.059 284.605 380.151 284.79 380.241 284.978C382.744 290.154 384.041 295.831 384.032 301.581Z" fill="#F2F2F2"/>
<path d="M349.398 303.146V515.275C347.224 514.003 345.083 512.682 342.975 511.312V303.146H349.398Z" fill="#3F3D56"/>
<path d="M67.5956 587.163L65.1455 553.103C49.096 545.084 31.3307 541.102 13.3921 541.503C38.6293 561 36.6078 599.97 54.0859 626.64C59.6009 634.916 66.9086 641.846 75.4674 646.916C84.0262 651.986 93.6167 655.065 103.528 655.927L124.531 668.004C126.934 652.132 125.866 635.928 121.399 620.509C116.933 605.089 109.176 590.82 98.6611 578.686C92.6951 571.937 85.9025 565.966 78.4436 560.913C73.8526 574.088 67.5956 587.163 67.5956 587.163Z" fill="#F2F2F2"/>
<path d="M346.582 324.665C359.543 324.665 370.05 314.163 370.05 301.207C370.05 288.252 359.543 277.75 346.582 277.75C333.62 277.75 323.113 288.252 323.113 301.207C323.113 314.163 333.62 324.665 346.582 324.665Z" fill="#FFE900"/>
<path d="M358.629 291.431C358.276 291.095 357.807 290.907 357.319 290.907C356.831 290.907 356.362 291.095 356.009 291.431C351.029 295.401 346.556 299.967 342.691 305.028C341.742 303.192 340.793 301.357 339.844 299.522C338.749 297.404 335.55 299.275 336.645 301.392C338.033 304.076 339.42 306.76 340.808 309.444C340.976 309.718 341.211 309.945 341.491 310.102C341.771 310.259 342.087 310.341 342.408 310.341C342.729 310.341 343.045 310.259 343.325 310.102C343.606 309.945 343.841 309.718 344.008 309.444C348.127 303.646 353.05 298.463 358.629 294.05C358.974 293.701 359.167 293.231 359.167 292.741C359.167 292.25 358.974 291.78 358.629 291.431Z" fill="white"/>
<path d="M218.779 291.65L235.764 367.412L126.921 360.645L156.518 286.238L218.779 291.65Z" fill="#A0616A"/>
<path d="M200.655 641.323L212.881 641.322L218.697 594.186H200.652L200.655 641.323Z" fill="#A0616A"/>
<path d="M196.514 635.294L215.841 634.141V642.418L234.216 655.103C235.124 655.729 235.808 656.629 236.167 657.671C236.527 658.713 236.544 659.843 236.216 660.896C235.887 661.948 235.231 662.868 234.343 663.522C233.454 664.175 232.38 664.527 231.277 664.527H208.267L204.301 656.34L202.752 664.527H194.077L196.514 635.294Z" fill="#2F2E41"/>
<path d="M85.0967 635.243L97.046 637.833L112.728 593.001L95.0932 589.177L85.0967 635.243Z" fill="#A0616A"/>
<path d="M82.3296 628.474L101.462 631.443L99.7068 639.532L114.974 655.822C115.728 656.626 116.205 657.65 116.336 658.745C116.466 659.84 116.243 660.948 115.699 661.907C115.155 662.866 114.318 663.626 113.312 664.076C112.305 664.526 111.18 664.643 110.103 664.409L87.6155 659.533L85.476 650.692L82.2261 658.365L73.7476 656.526L82.3296 628.474Z" fill="#2F2E41"/>
<path d="M238.543 430.766C229.962 477.901 227.817 498.252 227.817 498.252C227.817 498.252 234.253 505.751 229.962 510.039C225.672 514.327 229.962 522.892 229.962 522.892L220.315 626.804L212.549 625.546L193.842 622.539L187.095 621.449L191.385 523.97C191.385 523.97 187.095 515.393 189.24 513.249C191.385 511.105 187.095 498.252 187.095 498.252L181.738 396.484L148.506 507.895C148.506 507.895 151.73 512.183 148.506 515.393C145.294 518.603 138.871 534.678 138.871 534.678L119.109 603.793L117.431 609.663L107.125 607.734L95.9077 605.626L93.8464 605.243L90.1793 604.548L87.8184 604.105L87.0154 603.961L83.1326 603.23L84.3071 598.02L84.9182 595.277L101.636 521.059L102.02 519.346L102.427 517.537C102.427 517.537 100.282 512.183 103.494 508.961C104.433 507.979 105.12 506.783 105.493 505.477C105.867 504.17 105.917 502.792 105.639 501.462C105.534 501.35 105.438 501.23 105.351 501.103C104.972 500.583 104.71 499.986 104.584 499.354C104.297 498.013 104.548 496.132 106.717 493.964C107.328 493.315 107.841 492.581 108.239 491.784C111.499 485.615 113.141 472.547 113.141 472.547C113.141 472.547 116.041 369.042 125.533 353.23C126.036 352.404 136.112 336.537 136.639 336.213C147.353 329.793 230.824 338.661 230.824 338.661C230.824 338.661 235.879 352.236 236.107 353.65C237.341 361.591 245.817 390.782 238.543 430.766Z" fill="#2F2E41"/>
<path d="M213.18 181.451C213.18 181.451 214.986 172.08 197.631 154.733C188.443 151.672 172.523 153.456 167.004 154.733C141.482 188.407 146.051 182.465 139.408 201.28C137.685 206.158 136.824 210.846 137.589 214.672C140.652 229.979 145.624 308.548 144.603 312.63C143.582 316.711 136.436 321.813 143.582 321.813C150.729 321.813 242.886 320.201 240.844 317.14C238.803 314.079 213.18 181.451 213.18 181.451Z" fill="#FFE900"/>
<path d="M322.631 305.955C321.231 306.496 319.73 306.725 318.232 306.624C316.735 306.523 315.278 306.095 313.964 305.37C312.65 304.645 311.511 303.641 310.627 302.429C309.743 301.217 309.136 299.825 308.848 298.353L272.729 293.225L285.288 279.031L317.662 286.077C320.168 285.757 322.705 286.368 324.791 287.794C326.877 289.219 328.368 291.359 328.98 293.81C329.593 296.26 329.285 298.85 328.114 301.088C326.944 303.327 324.993 305.058 322.631 305.955Z" fill="#A0616A"/>
<path d="M169.82 175.419C172.732 173.476 176.04 172.563 178.702 169.969C188.425 176.966 189.14 165.573 197.951 182.712C206.762 199.852 238.188 241.176 251.437 253.601C264.685 266.026 288.943 272.311 295.977 276.682C300.086 279.148 304.396 281.264 308.859 283.009C306.039 288.5 304.475 294.517 300.949 299.765C281.027 297.325 254.907 289.357 240.219 285.462C225.53 281.567 231.117 284.469 225.076 279.902C219.035 275.335 224.029 277.44 216.998 275.586C209.967 273.732 204.606 264.424 202.487 257.234C197.439 252.077 193.112 246.506 188.117 241.403C182.346 219.337 175.925 197.374 169.82 175.419Z" fill="#FFE900"/>
<path d="M192.627 141.673C208.953 141.673 222.188 128.444 222.188 112.126C222.188 95.8071 208.953 82.5782 192.627 82.5782C176.3 82.5782 163.065 95.8071 163.065 112.126C163.065 128.444 176.3 141.673 192.627 141.673Z" fill="#A0616A"/>
<path d="M212.378 166.137C210.976 164.137 200.5 144.305 197.386 136.805C197.066 138.429 196.864 140.075 196.781 141.728L196.75 142.344L196.138 142.423C195.218 142.541 173.475 145.178 162.16 132.354C155.456 124.758 153.936 113.364 157.635 98.482C156.963 98.35 156.318 98.1018 155.73 97.7486C154.752 97.0717 153.933 96.1896 153.331 95.1639C152.728 94.1381 152.357 92.9934 152.243 91.8095L151.616 91.9774C131.486 82.1866 148.829 53.5453 167.216 67.7852C168.828 67.425 170.51 67.5215 172.07 68.064C173.576 68.6762 174.888 69.684 175.866 70.9807C176.845 72.2775 177.455 73.8147 177.63 75.4296C187.13 70.4351 199.704 71.2478 206.206 74.9952C208.929 76.5644 210.492 78.5407 210.77 80.7455C218.451 81.1742 226.712 88.6522 226.712 99.2472V99.985H225.973C222.883 100.051 219.869 100.955 217.254 102.602C214.639 104.248 212.521 106.575 211.128 109.332C209.239 112.743 208.304 116.599 208.421 120.496C208.539 124.393 209.704 128.186 211.795 131.477C214.071 134.967 215.625 138.878 216.365 142.978C217.105 147.078 217.017 151.285 216.106 155.35L213.332 167.499L212.378 166.137Z" fill="#2F2E41"/>
<path d="M298.154 664.771C298.154 664.964 298.117 665.155 298.043 665.334C297.969 665.512 297.861 665.675 297.725 665.811C297.588 665.948 297.426 666.056 297.247 666.13C297.068 666.203 296.877 666.241 296.684 666.24H-49.5301C-49.9199 666.24 -50.2938 666.085 -50.5695 665.81C-50.8451 665.534 -51 665.161 -51 664.771C-51 664.381 -50.8451 664.008 -50.5695 663.732C-50.2938 663.457 -49.9199 663.302 -49.5301 663.302H296.684C296.877 663.301 297.069 663.339 297.247 663.412C297.426 663.486 297.588 663.594 297.725 663.731C297.861 663.867 297.969 664.03 298.043 664.208C298.117 664.387 298.154 664.578 298.154 664.771Z" fill="#CCCCCC"/>
<path d="M529.353 602.129L530.585 574.432C543.433 567.568 557.762 563.942 572.33 563.87C552.28 580.253 554.786 611.836 541.193 633.868C536.901 640.707 531.124 646.493 524.291 650.797C517.457 655.101 509.742 657.814 501.717 658.732L484.939 669C482.637 656.172 483.145 642.997 486.427 630.384C489.709 617.771 495.689 606.019 503.953 595.938C508.645 590.328 514.025 585.331 519.966 581.066C523.985 591.656 529.353 602.129 529.353 602.129Z" fill="#F2F2F2"/>
<path d="M486.123 649.808H470.931L463.704 591.238H486.126L486.123 649.808Z" fill="#FFB6B6"/>
<path d="M489.998 664.527L441.012 664.525V663.906C441.013 658.852 443.021 654.005 446.597 650.431C450.173 646.857 455.022 644.849 460.079 644.849L469.028 638.064L485.723 644.85L489.999 644.85L489.998 664.527Z" fill="#2F2E41"/>
<path d="M415.543 649.808H400.351L393.124 591.238H415.546L415.543 649.808Z" fill="#FFB6B6"/>
<path d="M419.418 664.527L370.432 664.525V663.906C370.433 658.852 372.442 654.005 376.017 650.431C379.593 646.857 384.442 644.849 389.499 644.849L398.448 638.064L415.143 644.85L419.419 644.85L419.418 664.527Z" fill="#2F2E41"/>
<path d="M408.967 329.603L507.783 332.072C526.551 342.261 526.836 364.313 520.687 390.494C520.687 390.494 522.762 406.056 518.611 410.205C514.459 414.355 512.383 414.355 514.459 421.617C516.535 428.879 505.567 440.74 506.899 442.072C508.231 443.403 511.345 450.665 511.345 450.665L500.966 509.799C500.966 509.799 493.7 612.505 491.624 614.58C489.548 616.655 487.473 614.58 489.548 619.767C491.624 624.954 493.7 622.879 491.624 624.954C489.785 626.936 488.053 629.013 486.435 631.179H461.34C461.34 631.179 459.448 620.804 459.448 619.767C459.448 618.729 457.372 612.505 457.372 611.467C457.372 610.43 459.207 608.596 459.207 608.596C459.841 606.487 460.27 604.322 460.486 602.13C460.486 600.056 466.714 520.173 466.714 520.173L454.259 416.43L424.159 518.098C424.159 518.098 424.158 607.318 422.083 609.392C420.007 611.467 420.007 610.43 421.045 614.58C422.083 618.729 426.234 617.692 423.121 620.804C420.007 623.917 418.969 618.729 420.007 623.917L421.045 629.104L389.907 629.549C389.907 629.549 385.755 620.804 387.831 617.692C389.907 614.58 389.782 615.429 387.249 610.336C384.717 605.243 383.679 604.205 384.717 603.168C385.755 602.13 385.755 596.612 385.755 596.612L390.945 497.35C390.945 497.35 391.982 392.569 391.982 389.457C392.061 387.855 391.766 386.257 391.12 384.79V380.565L395.096 365.596L408.967 329.603Z" fill="#2F2E41"/>
<path d="M468.328 124.231C485.284 124.231 499.03 110.491 499.03 93.5428C499.03 76.5944 485.284 62.855 468.328 62.855C451.371 62.855 437.625 76.5944 437.625 93.5428C437.625 110.491 451.371 124.231 468.328 124.231Z" fill="#FFB6B6"/>
<path d="M452.976 144.513C446.362 148.443 442.405 155.665 440.133 163.014C435.928 176.619 433.397 190.685 432.596 204.902L430.197 247.466L400.484 338.095C426.235 359.873 523.028 343.044 523.028 343.044C523.028 343.044 525.999 342.055 523.028 339.085C520.057 336.115 517.164 338.746 520.135 335.776C523.106 332.806 521.058 336.115 520.068 333.145C519.077 330.175 520.068 332.155 521.058 331.165C522.049 330.175 513.391 321.266 513.391 321.266L521.314 269.244L531.218 164.311C519.333 149.463 495.431 140.709 495.431 140.709L489.255 129.598L458.375 132.067L452.976 144.513Z" fill="#3F3D56"/>
<path d="M448.765 75.5328C449.953 75.5421 451.136 75.6971 452.286 75.9945C454.553 76.5394 456.856 76.9253 459.177 77.1496C466.285 77.818 472.963 80.8477 478.146 85.755C483.329 90.6622 486.717 97.1639 487.769 104.222C489.553 102.667 493.613 99.807 496.94 102.465C496.991 102.507 497.021 102.529 497.138 102.473C499.348 101.426 503.27 88.5286 503.389 77.1731C503.452 71.146 502.502 63.4496 497.626 61.0124L497.369 60.884L497.301 60.6048C496.975 59.2491 493.335 56.9348 487.008 55.1335C475.51 51.8602 458.71 51.3869 449.058 60.7712C448.328 63.9349 445.613 64.8018 443.213 65.5692C440.555 66.4186 438.259 67.1516 437.898 70.4105C437.595 75.0482 437.617 79.7013 437.963 84.336C438.864 81.5 440.632 79.0178 443.018 77.2388C444.715 76.0971 446.72 75.5018 448.765 75.5328Z" fill="#2F2E41"/>
<path d="M426.554 229.078L445.818 170.673L418.376 183.287L399.296 219.266L355.997 261.772C353.124 261.767 350.31 262.599 347.901 264.165C345.491 265.732 343.589 267.966 342.426 270.594C341.263 273.222 340.891 276.132 341.353 278.968C341.815 281.803 343.093 284.443 345.03 286.565C346.967 288.687 349.479 290.199 352.261 290.917C355.044 291.635 357.975 291.528 360.698 290.609C363.421 289.69 365.818 287.998 367.597 285.741C369.376 283.484 370.46 280.758 370.717 277.895L426.554 229.078Z" fill="#FFB6B6"/>
<path d="M474.146 161.097C481.969 177.138 438.906 225.071 438.906 225.071C437.724 221.111 415.204 260.387 412.805 257.526C405.987 249.394 396.555 228.13 389.863 226.272C386.037 225.21 402.999 199.446 402.999 199.446C402.999 199.446 411.287 183.981 422.346 164.295C425.369 158.672 429.766 153.904 435.128 150.436C440.49 146.968 446.642 144.911 453.012 144.459C453.012 144.459 466.323 145.057 474.146 161.097Z" fill="#3F3D56"/>
<path d="M513.314 284.526L528.764 227.036L487.477 219.225L489.698 258.685L435.451 314.515C432.579 314.397 429.735 315.118 427.265 316.588C424.796 318.058 422.808 320.215 421.544 322.795C420.28 325.375 419.794 328.267 420.146 331.118C420.497 333.97 421.671 336.657 423.525 338.853C425.378 341.049 427.831 342.658 430.583 343.485C433.336 344.311 436.27 344.32 439.027 343.509C441.785 342.697 444.246 341.102 446.112 338.917C447.978 336.731 449.167 334.051 449.535 331.201L513.314 284.526Z" fill="#FFB6B6"/>
<path d="M532.988 162.578C547.003 173.636 529.015 235.491 529.015 235.491C526.231 232.436 522.994 277.583 519.59 276.046C509.916 271.677 492.184 256.611 485.348 257.839C481.439 258.541 485.535 227.976 485.535 227.976C485.535 227.976 486.288 210.451 487.704 187.921C487.986 181.544 489.878 175.342 493.203 169.893C496.528 164.443 501.178 159.923 506.722 156.754C506.722 156.754 518.974 151.52 532.988 162.578Z" fill="#3F3D56"/>
<path d="M600.169 664.771C600.169 664.964 600.131 665.155 600.058 665.334C599.984 665.512 599.876 665.675 599.739 665.811C599.603 665.948 599.44 666.056 599.262 666.13C599.083 666.203 598.892 666.241 598.699 666.24H252.485C252.095 666.24 251.721 666.085 251.445 665.81C251.17 665.534 251.015 665.161 251.015 664.771C251.015 664.381 251.17 664.008 251.445 663.732C251.721 663.457 252.095 663.302 252.485 663.302H598.699C598.892 663.301 599.083 663.339 599.262 663.412C599.44 663.486 599.603 663.594 599.739 663.731C599.876 663.867 599.984 664.03 600.058 664.208C600.131 664.387 600.169 664.578 600.169 664.771Z" fill="#CCCCCC"/>
<path d="M345.852 558.889C353.077 558.889 358.934 553.035 358.934 545.814C358.934 538.593 353.077 532.739 345.852 532.739C338.628 532.739 332.771 538.593 332.771 545.814C332.771 553.035 338.628 558.889 345.852 558.889Z" fill="#E6E6E6"/>
</g>
<defs>
<clipPath id="clip0_106_2678">
<rect width="519" height="665" fill="white"/>
</clipPath>
</defs>
</svg>
